{"title":"AFL Grant Final 2016 - Swans v Bulldogs (1080p HEVC/x265)","uid":15937123,"size":3254857886,"categoryP":"video","categoryS":"tv_shows","magnet":"?xt=urn:btih:46f38b5ce484d3cb8f1592012ad1106511e0abbc&amp;dn=+AFL+Grant+Final+2016+-+Swans+v+Bulldogs+%281080p+HEVC%2Fx265%29&amp;tr=udp%3A%2F%2Ftracker.leechers-paradise.org%3A6969&amp;tr=udp%3A%2F%2Fzer0day.ch%3A1337&amp;tr=udp%3A%2F%2Fopen.demonii.com%3A1337&amp;tr=udp%3A%2F%2Ftracker.coppersurfer.tk%3A6969&amp;tr=udp%3A%2F%2Fexodus.desync.com%3A6969","seeders":0,"leechers":1,"uploader":null,"files":1,"time":1475412300,"description":"This is the 7HD (1080i) broadcast from first bounce to final siren, upscaled to    HEVC/x265.\r\n\r\n\r\nGeneral\r\nComplete name                            : 2016_AFL_Grand_Final.mp4\r\nFormat                                   : MPEG-4\r\nFormat profile                           : Base Media\r\nCodec ID                                 : isom (isom/iso2/mp41)\r\nFile size                                : 3.03 GiB\r\nDuration                                 : 2h 0mn\r\nOverall bit rate mode                    : Variable\r\nOverall bit rate                         : 3 588 Kbps\r\n\r\nWriting application                      : Lavf56.40.101\r\n\r\nVideo\r\nID                                       : 1\r\nFormat                                   : HEVC\r\nFormat/Info                              : High Efficiency Video Coding\r\nFormat profile                           :   @Main\r\nCodec ID                                 : hev1\r\nCodec ID/Info                            : High Efficiency Video Coding\r\nDuration                                 : 2h 0mn\r\nBit rate                                 : 3 513 Kbps\r\nWidth                                    : 1 920 pixels\r\nHeight                                   : 1 080 pixels\r\nDisplay aspect ratio                     : 16:9\r\nFrame rate mode                          : Constant\r\nFrame rate                               : 50.000 fps\r\nColor space                              : YUV\r\nChroma subsampling                       : 4:2:0\r\nBit depth                                : 8 bits\r\nScan type                                : Progressive\r\nBits/(Pixel*Frame)                       : 0.034\r\nStream size                              : 2.97 GiB (98%)\r\nWriting library                          : x265 1.9:[Linux][GCC 5.3.1][64 bit] \r\n\r\nAudio\r\nID                                       : 2\r\nFormat                                   : AAC\r\nFormat/Info                              : Advanced Audio Codec\r\nFormat profile                           : HE-AACv2 / HE-AAC / LC\r\nCodec ID                                 : 40\r\nDuration                                 : 2h 0mn\r\nBit rate mode                            : Variable\r\nBit rate                                 : 67.6 Kbps\r\nMaximum bit rate                         : 80.5 Kbps\r\nChannel(s)                               : 2 channels / 1 channel / 1 channel\r\nChannel positions                        : Front: L R / Front: C / Front: C\r\nSampling rate                            : 48.0 KHz / 48.0 KHz / 24.0 KHz\r\nFrame rate                               : 23.438 fps (1024 spf)\r\nCompression mode                         : Lossy\r\nStream size                              : 58.5 MiB (2%)\r\nDefault                                  : Yes","torrent":{"xt":"urn:btih:46f38b5ce484d3cb8f1592012ad1106511e0abbc","amp;dn":"+AFL+Grant+Final+2016+-+Swans+v+Bulldogs+%281080p+HEVC%2Fx265%29","amp;tr":["udp%3A%2F%2Ftracker.leechers-paradise.org%3A6969","udp%3A%2F%2Fzer0day.ch%3A1337","udp%3A%2F%2Fopen.demonii.com%3A1337","udp%3A%2F%2Ftracker.coppersurfer.tk%3A6969","udp%3A%2F%2Fexodus.desync.com%3A6969"],"infoHash":"46f38b5ce484d3cb8f1592012ad1106511e0abbc","infoHashBuffer":{"type":"Buffer","data":[70,243,139,92,228,132,211,203,143,21,146,1,42,209,16,101,17,224,171,188]},"announce":[],"urlList":[]}}